<svg id="visual" viewBox="0 0 1980 1080" width="1980" height="1080" xmlns="http://www.w3.org/2000/svg" xmlns:xlink="http://www.w3.org/1999/xlink" version="1.1"><rect x="0" y="0" width="1980" height="1080" fill="#48CAE4"></rect><defs><linearGradient id="grad1_0" x1="45.5%" y1="0%" x2="100%" y2="100%"><stop offset="13.333333333333334%" stop-color="#48cae4" stop-opacity="1"></stop><stop offset="86.66666666666667%" stop-color="#48cae4" stop-opacity="1"></stop></linearGradient></defs><defs><linearGradient id="grad2_0" x1="0%" y1="0%" x2="54.5%" y2="100%"><stop offset="13.333333333333334%" stop-color="#48cae4" stop-opacity="1"></stop><stop offset="86.66666666666667%" stop-color="#48cae4" stop-opacity="1"></stop></linearGradient></defs><g transform="translate(1980, 0)"><path d="M0 702C-75.6 664.2 -151.3 626.3 -249.5 602.4C-347.8 578.4 -468.6 568.3 -496.4 496.4C-524.2 424.5 -458.9 290.9 -477.6 197.8C-496.4 104.8 -599.2 52.4 -702 0L0 0Z" fill="#ADE8F4"></path></g><g transform="translate(0, 1080)"><path d="M0 -702C66.6 -624 133.2 -546.1 213.2 -514.6C293.1 -483.2 386.4 -498.2 466 -466C545.6 -433.7 611.5 -354.2 648.6 -268.6C685.6 -183.1 693.8 -91.5 702 0L0 0Z" fill="#ADE8F4"></path></g></svg>